Coordinates
version=1
nRows=10
nColumns=34
inDegrees=yes

Units are S.I. units (second, meters, Newtons, ...)
If the header above contains a line with 'inDegrees', this indicates whether rotational values are in degrees (yes) or radians (no).

endheader
time	pelvis_tilt	pelvis_list	pelvis_rotation	pelvis_tx	pelvis_ty	pelvis_tz	hip_flexion_r	hip_adduction_r	hip_rotation_r	knee_angle_r	ankle_angle_r	subtalar_angle_r	mtp_angle_r	hip_flexion_l	hip_adduction_l	hip_rotation_l	knee_angle_l	ankle_angle_l	subtalar_angle_l	mtp_angle_l	lumbar_extension	lumbar_bending	lumbar_rotation	arm_flex_r	arm_add_r	arm_rot_r	elbow_flex_r	pro_sup_r	arm_flex_l	arm_add_l	arm_rot_l	elbow_flex_l	pro_sup_l
     11.20000000	     -2.65983095	      0.89512770	     -0.45627826	      0.75982269	      1.14625481	     -0.10102205	     -3.39571413	     -6.93555857	    -16.51152421	      0.00000000	      6.18485693	     -6.76502033	      0.00000000	     -2.07978502	     -2.90356755	    -13.72087107	      0.00000000	      3.86196742	     -3.99339096	      0.00000000	      1.99870230	     -2.10975426	     -3.28962572	     39.12314700	     -7.09199180	     17.37840620	     80.35490010	     71.40175392	     61.93051035	     -5.06004865	     41.56978539	     47.83824317	     29.16622012
     11.21666670	     -2.53551529	      0.96894313	     -0.70413631	      0.76071542	      1.14911990	     -0.10054331	     -3.59454312	     -7.04257526	    -16.42287572	      0.00000000	      6.15273405	     -6.68162758	      0.00000000	     -2.42108601	     -2.77760358	    -13.95041417	      0.00000000	      3.86305466	     -4.08895466	      0.00000000	      2.24639287	     -2.21634424	     -2.64587409	     39.14856316	     -7.14946610	     17.72043603	     79.50515210	     71.40771781	     61.69226045	     -4.45637263	     41.68219453	     48.08411006	     29.22292217
     11.23333330	     -2.29914209	      0.93734657	     -1.05758829	      0.76782066	      1.14679999	     -0.09703927	     -3.93422781	     -6.99814323	    -15.93499967	      0.00000000	      6.31077021	     -6.79103239	      0.00000000	     -2.95817360	     -2.78087028	    -14.46913911	      0.00000000	      3.96313226	     -4.01414836	      0.00000000	      2.83821293	     -2.23671812	     -2.65246660	     38.86744659	     -6.61506532	     18.03249907	     77.42871647	     71.39901837	     61.25855269	     -4.30814323	     41.55817449	     47.50823853	     29.28214940
     11.25000000	     -2.04398402	      0.88302825	     -1.12830304	      0.76861843	      1.14973213	     -0.09682804	     -4.37952709	     -6.90966799	    -16.02586260	      0.00000000	      6.17518128	     -6.87826868	      0.00000000	     -3.44008124	     -2.82763763	    -14.57203989	      0.00000000	      3.95486689	     -4.01394733	      0.00000000	      3.32037780	     -2.35384589	     -2.71250192	     38.05746064	     -6.49246559	     18.27847424	     77.24535733	     71.41321779	     60.67907830	     -4.36540464	     41.60876292	     47.50261046	     29.30039929
     11.26666670	     -1.90174899	      0.88267144	     -1.11010093	      0.76708754	      1.14946759	     -0.09768929	     -4.64831006	     -6.88943538	    -16.10224570	      0.00000000	      6.11696184	     -7.00420948	      0.00000000	     -3.69295016	     -2.79314243	    -14.82381027	      0.00000000	      3.99387297	     -4.08901940	      0.00000000	      3.68472807	     -2.41272105	     -2.68559784	     37.60033533	     -6.55979383	     18.25506246	     76.91293990	     71.40707853	     60.25545505	     -4.45746667	     41.60934738	     47.54320953	     29.32375321
     11.28333330	     -2.29017429	      0.93704218	     -1.10238529	      0.76775511	      1.14540938	     -0.09686453	     -4.30117057	     -6.90650951	    -15.74242110	      0.00000000	      5.87452208	     -7.68337920	      0.00000000	     -3.35271554	     -2.73087979	    -15.31078759	      0.00000000	      4.08903884	     -3.67139500	      0.00000000	      4.85307733	     -2.50879318	     -2.71205203	     37.27048370	     -6.13704420	     17.57565948	     76.05517580	     71.37404554	     59.51000316	     -4.77998130	     41.23015841	     48.25829008	     29.58767490
     11.30000000	     -2.27015521	      0.93445368	     -1.07680357	      0.76639586	      1.14533132	     -0.09772646	     -4.34032074	     -6.90597528	    -15.77591339	      0.00000000	      5.96996076	     -7.80040967	      0.00000000	     -3.39207709	     -2.69730013	    -15.36851389	      0.00000000	      4.20116307	     -3.69281402	      0.00000000	      5.02347551	     -2.42824717	     -2.84651634	     37.32874815	     -6.38336755	     17.44749200	     76.07187266	     71.37305627	     59.57227149	     -4.99195091	     41.15108475	     48.20587849	     29.60679272
     11.31666670	     -2.37830388	      0.85127939	     -1.00397852	      0.75855148	      1.14744724	     -0.10116630	     -4.10232794	     -6.87173849	    -15.71595709	      0.00000000	      5.94808782	     -8.17209176	      0.00000000	     -3.18373402	     -2.73717439	    -15.35440049	      0.00000000	      4.45657419	     -3.49280638	      0.00000000	      5.00841447	     -2.05863553	     -3.37578738	     37.54547849	     -6.32887957	     17.35812292	     76.55912507	     71.40103052	     59.82707304	     -5.27560159	     41.02185289	     47.87417692	     29.70867185
     11.33333330	     -2.49901977	      0.90681953	     -1.13958261	      0.75737101	      1.14414151	     -0.10161240	     -3.77974562	     -7.00343731	    -15.63940869	      0.00000000	      6.00995062	     -8.30465856	      0.00000000	     -2.96928367	     -2.60414182	    -15.41755956	      0.00000000	      4.55512500	     -3.50420004	      0.00000000	      4.87421781	     -1.82436109	     -3.64963160	     38.15041291	     -6.56028240	     17.08959273	     76.78034778	     71.39996280	     60.47680929	     -5.52778971	     40.84832642	     47.68856486	     29.74262837
     11.35000000	     -2.34712642	      0.89516351	     -1.07790029	      0.75841679	      1.14473575	     -0.10118493	     -3.76441278	     -7.02692983	    -15.08533311	      0.00000000	      5.54289882	     -9.53162578	      0.00000000	     -3.00898770	     -2.55619436	    -15.42676964	      0.00000000	      4.73435613	     -3.33165126	      0.00000000	      4.26256325	     -1.61648509	     -3.67226812	     38.00655072	     -6.78199735	     16.08527240	     78.87882233	     71.44446079	     61.14848127	     -5.37050200	     40.76125317	     47.35300507	     30.21174958
